<svg xmlns="http://www.w3.org/2000/svg" viewBox="0 0 256 255.6"><defs><style>.cls-1{fill:#005baa;}.cls-2{fill:#fff;}</style></defs><title>icon</title><g id="Warstwa_2" data-name="Warstwa 2"><g id="Warstwa_1-2" data-name="Warstwa 1"><rect class="cls-1" width="256" height="255.6"/><path class="cls-2" d="M22.92,138.86H16.26v-6.8h6.66Zm0,46H16.26V148.24h6.66Z"/><path class="cls-2" d="M39.13,148.24l.48,4.8a12.44,12.44,0,0,1,4.55-4,13.65,13.65,0,0,1,6.41-1.44,11.4,11.4,0,0,1,6.28,1.69,10.23,10.23,0,0,1,3.94,5.08,13.52,13.52,0,0,1,4.57-4.94A12,12,0,0,1,72,147.56a11,11,0,0,1,8.83,3.84q3.25,3.84,3.25,11.56v21.89H77.41v-22q0-5.41-1.87-7.66A6.78,6.78,0,0,0,70,153a7.09,7.09,0,0,0-5.53,2.36,10.37,10.37,0,0,0-2.49,6v23.52h-6.7v-22c0-3.43-.63-5.94-1.91-7.53a6.63,6.63,0,0,0-5.5-2.38,9.12,9.12,0,0,0-5,1.25,8.13,8.13,0,0,0-3,3.52v27.1H33.18V148.24Z"/><path class="cls-2" d="M101,138.86H94.29v-6.8H101Zm0,46H94.29V148.24H101Z"/><path class="cls-2" d="M126.41,185.56q-7.65,0-12.17-5.09t-4.52-13.21v-1.49a18.74,18.74,0,0,1,4.66-13,14.31,14.31,0,0,1,11-5.2q7.41,0,11.2,4.47t3.79,11.91v4.16H116.63l-.1.17a14.33,14.33,0,0,0,2.67,8.66,8.53,8.53,0,0,0,7.21,3.39,16.66,16.66,0,0,0,5.94-1,13.55,13.55,0,0,0,4.41-2.65l2.61,4.34a15.55,15.55,0,0,1-5.18,3.23A20.91,20.91,0,0,1,126.41,185.56Zm-1-32.75a7.25,7.25,0,0,0-5.72,2.81,13.34,13.34,0,0,0-2.91,7.07l.07.17h16.89V162a10.14,10.14,0,0,0-2.1-6.54A7.48,7.48,0,0,0,125.39,152.81Z"/><path class="cls-2" d="M153.82,148.24l.47,5.45a13.31,13.31,0,0,1,4.59-4.52,12.26,12.26,0,0,1,6.28-1.61q5.91,0,9.17,3.47t3.24,10.71v23.11h-6.66v-23q0-4.84-1.91-6.87c-1.28-1.36-3.22-2-5.84-2a9.4,9.4,0,0,0-5.09,1.38,10.17,10.17,0,0,0-3.54,3.79v26.7h-6.67V148.24Z"/><path class="cls-2" d="M193.21,148.24l.47,5.45a13.31,13.31,0,0,1,4.59-4.52,12.26,12.26,0,0,1,6.28-1.61q5.91,0,9.17,3.47T217,161.74v23.11H210.3v-23q0-4.84-1.91-6.87c-1.28-1.36-3.22-2-5.84-2a9.4,9.4,0,0,0-5.09,1.38,10.17,10.17,0,0,0-3.54,3.79v26.7h-6.67V148.24Z"/><path class="cls-2" d="M233.85,138.86h-6.67v-6.8h6.67Zm0,46h-6.67V148.24h6.67v36.61Z"/><path class="cls-2" d="M237.9,220.78q0,8.46-3.65,13.4a11.84,11.84,0,0,1-10.09,4.94,15.54,15.54,0,0,1-7.49-1.72,12.85,12.85,0,0,1-5-4.67v19.76h-1.83v-50.7h1.42l.37,6.57a13.71,13.71,0,0,1,5-5.31,14,14,0,0,1,7.48-1.93,11.8,11.8,0,0,1,10.13,5.12q3.68,5.13,3.67,13.83Zm-1.86-.71q0-7.62-3.06-12.37a9.89,9.89,0,0,0-8.85-4.75q-5.31,0-8.26,2.67a14.81,14.81,0,0,0-4.19,6.56v17.13a11.88,11.88,0,0,0,4.53,5.82,13.9,13.9,0,0,0,8,2.16,10,10,0,0,0,8.81-4.46q3-4.47,3-12.05Z"/><path class="cls-2" d="M250.12,238.41h-1.83V185.62h1.83Z"/><path class="cls-2" d="M85.77,234.36a9,9,0,0,0,5.84-2,6.26,6.26,0,0,0,2.52-5h6l.07.2q.16,4.74-4.21,8.43a15.38,15.38,0,0,1-10.21,3.69q-8,0-12.21-5.21a20.12,20.12,0,0,1-4.23-13.1v-1.42a20,20,0,0,1,4.24-13q4.26-5.24,12.2-5.23a14.81,14.81,0,0,1,10.51,3.79,11.77,11.77,0,0,1,3.94,9.3l-.06.21h-6a7.75,7.75,0,0,0-2.37-5.71,8.16,8.16,0,0,0-6-2.35q-5.23,0-7.49,3.77A17.72,17.72,0,0,0,76,219.86v1.42a18,18,0,0,0,2.23,9.35Q80.5,234.37,85.77,234.36Z"/><path class="cls-2" d="M114,233.65h21.15v5.25H106v-4.7l19.8-26.67H106.25v-5.25H134v4.5Z"/><path class="cls-2" d="M157.18,239.61q-7.65,0-12.17-5.09t-4.52-13.22v-1.49a18.78,18.78,0,0,1,4.66-13,14.33,14.33,0,0,1,11-5.19q7.41,0,11.2,4.46T171.15,218v4.16H147.4l-.1.17A14.36,14.36,0,0,0,150,231a8.53,8.53,0,0,0,7.21,3.39,16.9,16.9,0,0,0,5.94-1,13.57,13.57,0,0,0,4.41-2.66l2.61,4.34a15.55,15.55,0,0,1-5.18,3.23A20.69,20.69,0,0,1,157.18,239.61Zm-1-32.76a7.23,7.23,0,0,0-5.72,2.82,13.3,13.3,0,0,0-2.91,7.06l.07.17h16.89V216a10.18,10.18,0,0,0-2.1-6.55A7.5,7.5,0,0,0,156.16,206.85Z"/><path class="cls-2" d="M189.67,221.94h-4.34v17h-6.66V186.11h6.66V216.7h4.27l10-14.42h8L195.08,218.9l14.31,20h-7.85Z"/><path class="cls-2" d="M209.28,238.9h-6.67V232h6.67Z"/><path class="cls-1" d="M209.74,239.36h-7.59v-7.83h7.59Zm-6.66-.92h5.74v-6h-5.74Z"/></g></g></svg>